<svg viewBox="0 0 1656 215" xmlns="http://www.w3.org/2000/svg" role="presentation" aria-label="STURDY.TV Logo" class="home-hero__logo"><g><path d="M1569.71 3.894H1656l-110.4 129.361v77.115h-78.78v-77.698L1353.87 3.894h94.32l60.21 71.35 61.31-71.35Z" class="logo__letter"></path><path d="M1104.66 210.369h146.79c122.91 0 148.71-53.585 148.71-100.472v-8.328c0-48.576-29.99-97.734-149-97.734h-146.5v206.534Zm78.84-152.361h58.57c68.83 0 76.34 29.704 76.34 47.76v1.689c0 18.056-7.51 48.284-76.34 48.284h-58.57V58.008Z" class="logo__letter"></path><path d="M902.675 139.608h75.46c31.095 0 41.925 12.231 41.925 35.82v24.171c0 5.825.52 8.62 2.5 10.834h80.47v-1.398c-1.92-3.611-3.9-8.853-3.9-23.298v-30.52c0-26.676-16.95-43.275-42.45-49.1 15.55-3.611 41.63-16.075 41.63-46.07v-3.03c0-33.606-26.61-53.002-86.87-53.002H823.895V210.55h78.78v-70.941Zm-.001-85.503h90.425c17.761 0 23.871 7.746 23.871 17.473v.291c0 10.018-6.4 17.765-23.871 17.765h-90.425v-35.53Z" class="logo__letter"></path><path d="M672.508 213.748c-120.12 0-137.063-71.349-137.063-111.304V3.894h79.07v92.434c0 25.278 11.121 55.507 63.292 55.507 51.355 0 63-30.229 63-55.507V3.894h78.779v98.55c0 39.955-19.156 111.304-135.957 111.304h-11.121Z" class="logo__letter"></path><path d="M442.341 210.37h-78.779V67.788h-89.086V3.894h256.951v63.894h-89.086V210.37Z" class="logo__letter"></path><path d="M151.212 214.271c108.475 0 127.922-35.528 127.922-70.242v-3.902c0-41.645-30.51-59.934-109.056-62.205l-37.207-.816c-38.836-.815-44.95-7.513-44.95-15.842v-.291c0-8.038 4.134-15.26 45.533-15.26h2.794c44.66 0 49.143 14.444 49.958 21.958h85.767v-2.214c0-32.733-23.291-65.233-125.419-65.233h-24.687C25.561.282 3.086 29.696 3.086 63.303v2.504c0 31.918 21.369 59.933 101.255 62.205l38.312 1.106c43.262 1.398 48.561 8.038 48.561 18.58v.292c0 10.018-6.405 19.453-50.482 19.453h-2.504c-44.95 0-50.773-18.056-51.588-29.122H0v2.796c0 26.909 11.936 73.271 126.001 73.271l25.211-.117Z" class="logo__letter"></path></g><g class="logo__tm"><path d="M1654.78 48.397v13.979h-2.51V50.785l-4.07 11.59h-2.27l-4.08-11.59v11.59h-2.62V48.398h4.19l3.61 10.367 3.61-10.367h4.14Z"></path><path d="M1637.78 48.397v2.097h-4.72v11.882h-2.85V50.494h-4.78v-2.097h12.35Z"></path></g><g class="logo__square"><path d="M1574.48 163.078h68.13v47.177h-68.13v-47.177Z"></path></g></svg>